# xmcd
#
# Track frame offsets:
#	150
#	27540
#	84013
#	122757
#	168610
#	197267
#	234481
#	255762
#
# Disc length: 3847 seconds
#
# Revision: 1
# Processed by: cddbd v1.4PL0 Copyright (c) Steve Scherf et al.
# Submitted via: audiograbber 1.80.04
#
DISCID=550f0508
DTITLE=Grateful Dead - Miami 4-7-91 disc 1
DYEAR=1900
DGENRE=
TTITLE0=Jack Straw
TTITLE1=Sugaree
TTITLE2=Wang Dang Doodle
TTITLE3=Row Jimmy
TTITLE4=Black Throated Wind
TTITLE5=Ruben and Cherise
TTITLE6=The Promised Land
TTITLE7=Filler: Jack Straw
EXTD=
EXTT0=
EXTT1=
EXTT2=
EXTT3=
EXTT4=
EXTT5=
EXTT6=
EXTT7=
PLAYORDER=
